<svg width="49" height="16" viewBox="0 0 49 16" fill="none" xmlns="http://www.w3.org/2000/svg">
<path d="M46.2652 4.92345H48.5771V15.6266H46.2652V14.0854C45.3947 15.2984 44.146 15.9049 42.5191 15.9049C41.0492 15.9049 39.7934 15.3626 38.7516 14.278C37.7099 13.1792 37.189 11.8448 37.189 10.275C37.189 8.69097 37.7099 7.35664 38.7516 6.27205C39.7934 5.18747 41.0492 4.64517 42.5191 4.64517C44.146 4.64517 45.3947 5.24455 46.2652 6.4433V4.92345ZM40.4641 12.7368C41.1063 13.379 41.9126 13.7 42.883 13.7C43.8535 13.7 44.6598 13.379 45.302 12.7368C45.9442 12.0803 46.2652 11.2597 46.2652 10.275C46.2652 9.29035 45.9442 8.4769 45.302 7.83471C44.6598 7.17825 43.8535 6.85002 42.883 6.85002C41.9126 6.85002 41.1063 7.17825 40.4641 7.83471C39.8219 8.4769 39.5008 9.29035 39.5008 10.275C39.5008 11.2597 39.8219 12.0803 40.4641 12.7368Z" fill="#1E1E1E"/>
<path d="M33.7554 15.6266V0H36.0673V15.6266H33.7554Z" fill="#1E1E1E"/>
<path d="M24.0793 11.2597C24.2506 12.0732 24.643 12.7011 25.2567 13.1435C25.8703 13.5716 26.6195 13.7857 27.5043 13.7857C28.7316 13.7857 29.6521 13.3433 30.2657 12.4585L32.1709 13.5716C31.1149 15.1271 29.5522 15.9049 27.4829 15.9049C25.7419 15.9049 24.3362 15.3769 23.2659 14.3208C22.1956 13.2505 21.6604 11.9019 21.6604 10.275C21.6604 8.6767 22.1884 7.34237 23.2445 6.27205C24.3005 5.18747 25.6562 4.64517 27.3117 4.64517C28.8815 4.64517 30.1658 5.1946 31.1648 6.29346C32.178 7.39232 32.6847 8.72664 32.6847 10.2964C32.6847 10.539 32.6561 10.8601 32.599 11.2597H24.0793ZM24.0579 9.37597H30.3514C30.1944 8.50545 29.8305 7.84899 29.2596 7.40659C28.7031 6.96419 28.0466 6.74299 27.2903 6.74299C26.434 6.74299 25.7205 6.97846 25.1496 7.4494C24.5788 7.92034 24.2149 8.56253 24.0579 9.37597Z" fill="#1E1E1E"/>
<path d="M13.4448 0.301575L15.7608 0.301575L15.7608 15.8772L13.4448 15.8772L13.4448 0.301575Z" fill="#1E1E1E"/>
<path d="M19.7852 0.190956L20.5718 8.37815L20.5833 8.49453L20.5704 8.61162L19.7838 16L17.4807 15.7543L18.2551 8.48447L17.4792 0.412213L19.7852 0.190956Z" fill="#1E1E1E"/>
<path d="M9.07628 4.92345H11.3882V15.6266H9.07628V14.0854C8.20576 15.2984 6.95706 15.9049 5.33018 15.9049C3.86027 15.9049 2.60444 15.3626 1.56266 14.278C0.520887 13.1792 0 11.8448 0 10.275C0 8.69097 0.520887 7.35664 1.56266 6.27205C2.60444 5.18747 3.86027 4.64517 5.33018 4.64517C6.95706 4.64517 8.20576 5.24455 9.07628 6.4433V4.92345ZM3.27517 12.7368C3.91736 13.379 4.72366 13.7 5.69408 13.7C6.6645 13.7 7.47081 13.379 8.113 12.7368C8.75519 12.0803 9.07628 11.2597 9.07628 10.275C9.07628 9.29035 8.75519 8.4769 8.113 7.83471C7.47081 7.17825 6.6645 6.85002 5.69408 6.85002C4.72366 6.85002 3.91736 7.17825 3.27517 7.83471C2.63298 8.4769 2.31188 9.29035 2.31188 10.275C2.31188 11.2597 2.63298 12.0803 3.27517 12.7368Z" fill="#1E1E1E"/>
</svg>
