<svg width="26" height="26" viewBox="0 0 26 26" fill="none" xmlns="http://www.w3.org/2000/svg">
<rect x="0.705466" y="0.305442" width="24.6959" height="24.6959" rx="5.72222" fill="url(#paint0_radial_413_401)"/>
<rect x="0.705466" y="0.305442" width="24.6959" height="24.6959" rx="5.72222" stroke="url(#paint1_linear_413_401)" stroke-width="0.602339"/>
<g clip-path="url(#clip0_413_401)">
<path d="M17.6543 4.29102H9.1543C7.08323 4.29102 5.4043 5.96995 5.4043 8.04102V16.541C5.4043 18.6121 7.08323 20.291 9.1543 20.291H17.6543C19.7254 20.291 21.4043 18.6121 21.4043 16.541V8.04102C21.4043 5.96995 19.7254 4.29102 17.6543 4.29102Z" fill="url(#paint2_radial_413_401)"/>
<path d="M17.6543 4.29102H9.1543C7.08323 4.29102 5.4043 5.96995 5.4043 8.04102V16.541C5.4043 18.6121 7.08323 20.291 9.1543 20.291H17.6543C19.7254 20.291 21.4043 18.6121 21.4043 16.541V8.04102C21.4043 5.96995 19.7254 4.29102 17.6543 4.29102Z" fill="url(#paint3_radial_413_401)"/>
<path d="M13.4049 6.04102C11.7075 6.04102 11.4944 6.04845 10.8278 6.07877C10.1624 6.10927 9.70823 6.21458 9.31086 6.36914C8.89973 6.52877 8.55105 6.74233 8.20367 7.08983C7.85598 7.43727 7.64242 7.78595 7.4823 8.19689C7.3273 8.59439 7.22186 9.04877 7.19192 9.71383C7.16211 10.3805 7.1543 10.5936 7.1543 12.2911C7.1543 13.9885 7.1618 14.2009 7.19205 14.8675C7.22267 15.5329 7.32798 15.9871 7.48242 16.3845C7.64217 16.7956 7.85573 17.1443 8.20323 17.4916C8.55055 17.8393 8.89923 18.0534 9.31005 18.213C9.70773 18.3676 10.162 18.4729 10.8272 18.5034C11.4939 18.5337 11.7068 18.5411 13.4041 18.5411C15.1017 18.5411 15.314 18.5337 15.9807 18.5034C16.646 18.4729 17.1007 18.3676 17.4984 18.213C17.9094 18.0534 18.2575 17.8393 18.6048 17.4916C18.9525 17.1443 19.166 16.7956 19.3262 16.3846C19.4798 15.9871 19.5853 15.5328 19.6165 14.8676C19.6465 14.201 19.6543 13.9885 19.6543 12.2911C19.6543 10.5936 19.6465 10.3806 19.6165 9.71395C19.5853 9.04858 19.4798 8.59445 19.3262 8.19708C19.166 7.78595 18.9525 7.43727 18.6048 7.08983C18.2572 6.7422 17.9095 6.52864 17.498 6.3692C17.0996 6.21458 16.6452 6.1092 15.9798 6.07877C15.3131 6.04845 15.1009 6.04102 13.4029 6.04102H13.4049ZM12.8442 7.16733C13.0106 7.16708 13.1963 7.16733 13.4049 7.16733C15.0737 7.16733 15.2714 7.17333 15.9304 7.20327C16.5398 7.23114 16.8705 7.33295 17.0909 7.41852C17.3825 7.53177 17.5905 7.6672 17.8091 7.88602C18.0279 8.10477 18.1632 8.31308 18.2768 8.60477C18.3624 8.82477 18.4643 9.15552 18.492 9.76489C18.522 10.4238 18.5285 10.6216 18.5285 12.2896C18.5285 13.9576 18.522 14.1556 18.492 14.8144C18.4642 15.4238 18.3624 15.7545 18.2768 15.9746C18.1635 16.2663 18.0279 16.474 17.8091 16.6926C17.5904 16.9113 17.3827 17.0467 17.0909 17.16C16.8708 17.246 16.5398 17.3475 15.9304 17.3754C15.2715 17.4053 15.0737 17.4118 13.4049 17.4118C11.736 17.4118 11.5382 17.4053 10.8794 17.3754C10.27 17.3473 9.93923 17.2455 9.71873 17.1599C9.42711 17.0466 9.21873 16.9112 8.99998 16.6925C8.78123 16.4737 8.64586 16.2659 8.5323 15.9741C8.44673 15.754 8.3448 15.4233 8.31705 14.8139C8.28711 14.155 8.28111 13.9571 8.28111 12.2881C8.28111 10.619 8.28711 10.4222 8.31705 9.76333C8.34492 9.15395 8.44673 8.8232 8.5323 8.60289C8.64561 8.3112 8.78123 8.10289 9.00005 7.88414C9.21886 7.66539 9.42711 7.52995 9.7188 7.41645C9.93911 7.33052 10.27 7.22895 10.8794 7.20095C11.4559 7.17489 11.6794 7.16708 12.8442 7.16577V7.16733ZM16.7411 8.20508C16.327 8.20508 15.9911 8.5407 15.9911 8.95483C15.9911 9.36889 16.327 9.70483 16.7411 9.70483C17.1552 9.70483 17.4911 9.36889 17.4911 8.95483C17.4911 8.54077 17.1552 8.20483 16.7411 8.20483V8.20508ZM13.4049 9.08139C11.6324 9.08139 10.1952 10.5185 10.1952 12.2911C10.1952 14.0636 11.6324 15.5001 13.4049 15.5001C15.1774 15.5001 16.614 14.0636 16.614 12.2911C16.614 10.5186 15.1773 9.08139 13.4047 9.08139H13.4049ZM13.4049 10.2077C14.5554 10.2077 15.4882 11.1404 15.4882 12.2911C15.4882 13.4416 14.5554 14.3745 13.4049 14.3745C12.2543 14.3745 11.3215 13.4416 11.3215 12.2911C11.3215 11.1404 12.2542 10.2077 13.4049 10.2077Z" fill="white"/>
</g>
<defs>
<radialGradient id="paint0_radial_413_401" cx="0" cy="0" r="1" gradientUnits="userSpaceOnUse" gradientTransform="translate(19.6996 6.86481) rotate(133.315) scale(20.6262)">
<stop stop-color="#FCFCFC"/>
<stop offset="1" stop-color="#DFDFDF"/>
</radialGradient>
<linearGradient id="paint1_linear_413_401" x1="24.4945" y1="22.2174" x2="0.531861" y2="20.9832" gradientUnits="userSpaceOnUse">
<stop stop-color="#EBEBEB"/>
<stop offset="1" stop-color="#888888"/>
</linearGradient>
<radialGradient id="paint2_radial_413_401" cx="0" cy="0" r="1" gradientUnits="userSpaceOnUse" gradientTransform="translate(9.6543 21.5233) rotate(-90) scale(15.8572 14.7484)">
<stop stop-color="#FFDD55"/>
<stop offset="0.1" stop-color="#FFDD55"/>
<stop offset="0.5" stop-color="#FF543E"/>
<stop offset="1" stop-color="#C837AB"/>
</radialGradient>
<radialGradient id="paint3_radial_413_401" cx="0" cy="0" r="1" gradientUnits="userSpaceOnUse" gradientTransform="translate(2.72423 5.44358) rotate(78.681) scale(7.08825 29.218)">
<stop stop-color="#3771C8"/>
<stop offset="0.128" stop-color="#3771C8"/>
<stop offset="1" stop-color="#6600FF" stop-opacity="0"/>
</radialGradient>
<clipPath id="clip0_413_401">
<rect width="16" height="16" fill="white" transform="translate(5.4043 4.29102)"/>
</clipPath>
</defs>
</svg>
