<svg width="26" height="26" viewBox="0 0 26 26" fill="none" xmlns="http://www.w3.org/2000/svg">
<rect x="0.544822" y="0.305442" width="24.6959" height="24.6959" rx="5.72222" fill="url(#paint0_radial_413_397)"/>
<rect x="0.544822" y="0.305442" width="24.6959" height="24.6959" rx="5.72222" stroke="url(#paint1_linear_413_397)" stroke-width="0.602339"/>
<path d="M15.1233 4.62502L7.99995 8.41246C6.56364 9.17589 5.83957 10.9075 6.46345 12.4095C6.70224 12.99 7.11085 13.4848 7.6357 13.8291C8.16056 14.1733 8.77718 14.351 9.40476 14.3388C9.59289 14.3349 9.65851 14.5838 9.49226 14.6722L8.13164 15.3954C6.69576 16.1597 5.9717 17.8913 6.59557 19.3928C6.76117 19.7947 7.00903 20.1575 7.32323 20.4578C7.63743 20.7582 8.01101 20.9894 8.41994 21.1368C8.82887 21.2841 9.26411 21.3442 9.69766 21.3132C10.1312 21.2822 10.5535 21.1608 10.9373 20.9569L18.0611 17.1695C19.497 16.406 20.2211 14.6744 19.5972 13.1725C19.3584 12.592 18.9499 12.0973 18.4251 11.753C17.9004 11.4087 17.2838 11.231 16.6563 11.2431C16.4678 11.247 16.4026 10.9981 16.5688 10.9097L17.9295 10.1861C19.3649 9.42264 20.089 7.69102 19.4651 6.18908C19.2995 5.78726 19.0516 5.42454 18.7375 5.12423C18.4233 4.82393 18.0498 4.59269 17.6409 4.44538C17.232 4.29807 16.7968 4.23795 16.3633 4.26889C15.9298 4.29983 15.5071 4.42114 15.1233 4.62502Z" fill="#FF0000"/>
<path d="M15.3944 12.9016L11.4163 10.6047V15.1985L15.3944 12.9016Z" fill="white"/>
<defs>
<radialGradient id="paint0_radial_413_397" cx="0" cy="0" r="1" gradientUnits="userSpaceOnUse" gradientTransform="translate(20.5302 20.7974) rotate(-135.096) scale(22.6108)">
<stop stop-color="#FCFCFC"/>
<stop offset="1" stop-color="#DFDFDF"/>
</radialGradient>
<linearGradient id="paint1_linear_413_397" x1="24.3338" y1="22.2174" x2="0.371217" y2="20.9832" gradientUnits="userSpaceOnUse">
<stop stop-color="#EBEBEB"/>
<stop offset="1" stop-color="#888888"/>
</linearGradient>
</defs>
</svg>
