<svg width="26" height="26" viewBox="0 0 26 26" fill="none" xmlns="http://www.w3.org/2000/svg">
<rect x="0.705466" y="0.305442" width="24.6959" height="24.6959" rx="5.72222" fill="url(#paint0_radial_413_388)"/>
<rect x="0.705466" y="0.305442" width="24.6959" height="24.6959" rx="5.72222" stroke="url(#paint1_linear_413_388)" stroke-width="0.602339"/>
<g clip-path="url(#clip0_413_388)">
<path d="M16.7796 10.7148C17.8011 11.4446 19.0524 11.874 20.4039 11.874V9.27473C20.1481 9.27483 19.893 9.24815 19.6428 9.19511V11.2411C18.2914 11.2411 17.0402 10.8118 16.0185 10.082V15.3865C16.0185 18.0401 13.8662 20.1911 11.2115 20.1911C10.2209 20.1911 9.30021 19.8918 8.5354 19.3784C9.40832 20.2705 10.6257 20.8239 11.9724 20.8239C14.6274 20.8239 16.7797 18.6729 16.7797 16.0192V10.7148H16.7796ZM17.7186 8.09244C17.1965 7.52244 16.8538 6.7858 16.7796 5.97139V5.63708H16.0583C16.2399 6.67216 16.8592 7.55645 17.7186 8.09244ZM10.2145 17.3422C9.92284 16.96 9.76518 16.4924 9.76592 16.0116C9.76592 14.798 10.7504 13.814 11.9649 13.814C12.1912 13.8138 12.4162 13.8486 12.6319 13.9169V11.2595C12.3798 11.225 12.1254 11.2103 11.8711 11.2157V13.2841C11.6553 13.2157 11.4302 13.181 11.2038 13.1812C9.98927 13.1812 9.00489 14.1651 9.00489 15.3789C9.00489 16.2372 9.49692 16.9802 10.2145 17.3422Z" fill="#FF004F"/>
<path d="M16.0184 10.082C17.0401 10.8117 18.2912 11.2411 19.6427 11.2411V9.19505C18.8883 9.03444 18.2205 8.64047 17.7184 8.09244C16.859 7.5564 16.2398 6.6721 16.0582 5.63708H14.1637V16.0191C14.1594 17.2295 13.1766 18.2095 11.9647 18.2095C11.2506 18.2095 10.6161 17.8693 10.2143 17.3421C9.49683 16.9802 9.00475 16.2371 9.00475 15.379C9.00475 14.1653 9.98913 13.1812 11.2036 13.1812C11.4363 13.1812 11.6606 13.2174 11.871 13.2841V11.2158C9.26282 11.2696 7.16528 13.3996 7.16528 16.0192C7.16528 17.3269 7.6876 18.5123 8.53537 19.3785C9.30017 19.8918 10.2208 20.1912 11.2114 20.1912C13.8663 20.1912 16.0185 18.04 16.0185 15.3865L16.0184 10.082Z" fill="black"/>
<path d="M19.6428 9.19498V8.64187C18.9625 8.64285 18.2957 8.45245 17.7185 8.09242C18.2294 8.65144 18.9022 9.03695 19.6428 9.19509M16.0583 5.63701C16.041 5.53811 16.0277 5.43855 16.0185 5.33858V5.00427H13.4025V15.3864C13.3984 16.5967 12.4157 17.5767 11.2037 17.5767C10.8601 17.5772 10.5212 17.4969 10.2144 17.3422C10.6162 17.8692 11.2506 18.2094 11.9648 18.2094C13.1766 18.2094 14.1595 17.2295 14.1637 16.0192V5.63706L16.0583 5.63701ZM11.8712 11.2157V10.6267C11.6526 10.5969 11.4322 10.582 11.2116 10.582C8.55652 10.582 6.4043 12.7331 6.4043 15.3864C6.4043 17.05 7.25015 18.516 8.53552 19.3784C7.68776 18.5122 7.16544 17.3267 7.16544 16.0191C7.16544 13.3996 9.26292 11.2695 11.8712 11.2157Z" fill="#00F2EA"/>
</g>
<defs>
<radialGradient id="paint0_radial_413_388" cx="0" cy="0" r="1" gradientUnits="userSpaceOnUse" gradientTransform="translate(19.6996 6.86481) rotate(133.315) scale(20.6262)">
<stop stop-color="#FCFCFC"/>
<stop offset="1" stop-color="#DFDFDF"/>
</radialGradient>
<linearGradient id="paint1_linear_413_388" x1="24.4945" y1="22.2174" x2="0.531861" y2="20.9832" gradientUnits="userSpaceOnUse">
<stop stop-color="#EBEBEB"/>
<stop offset="1" stop-color="#888888"/>
</linearGradient>
<clipPath id="clip0_413_388">
<rect width="14" height="15.8594" fill="white" transform="translate(6.4043 5.00427)"/>
</clipPath>
</defs>
</svg>
