<svg width="67" height="22" viewBox="0 0 67 22" fill="none" xmlns="http://www.w3.org/2000/svg">
<path d="M62.8942 6.81768H66.037V21.3678H62.8942V19.2726C61.7108 20.9216 60.0133 21.7461 57.8016 21.7461C55.8034 21.7461 54.0962 21.0089 52.68 19.5345C51.2638 18.0407 50.5557 16.2268 50.5557 14.0928C50.5557 11.9393 51.2638 10.1254 52.68 8.651C54.0962 7.17658 55.8034 6.43938 57.8016 6.43938C60.0133 6.43938 61.7108 7.25418 62.8942 8.8838V6.81768ZM55.008 17.4393C55.881 18.3123 56.9771 18.7488 58.2963 18.7488C59.6156 18.7488 60.7117 18.3123 61.5847 17.4393C62.4577 16.5469 62.8942 15.4314 62.8942 14.0928C62.8942 12.7541 62.4577 11.6483 61.5847 10.7753C60.7117 9.88291 59.6156 9.43671 58.2963 9.43671C56.9771 9.43671 55.881 9.88291 55.008 10.7753C54.135 11.6483 53.6985 12.7541 53.6985 14.0928C53.6985 15.4314 54.135 16.5469 55.008 17.4393Z" fill="white"/>
<path d="M45.8879 21.3678V0.124603H49.0308V21.3678H45.8879Z" fill="white"/>
<path d="M32.7339 15.4314C32.9667 16.5372 33.5002 17.3908 34.3344 17.9922C35.1686 18.5742 36.1871 18.8652 37.3899 18.8652C39.0584 18.8652 40.3097 18.2638 41.1439 17.061L43.7338 18.5742C42.2982 20.6888 40.1739 21.7461 37.3608 21.7461C34.994 21.7461 33.0831 21.0283 31.6281 19.5927C30.1731 18.1377 29.4456 16.3044 29.4456 14.0928C29.4456 11.9199 30.1634 10.106 31.599 8.651C33.0346 7.17658 34.8776 6.43938 37.128 6.43938C39.2621 6.43938 41.0081 7.18628 42.3661 8.6801C43.7435 10.1739 44.4322 11.9878 44.4322 14.1219C44.4322 14.4517 44.3934 14.8882 44.3158 15.4314H32.7339ZM32.7048 12.8705H41.2603C41.0469 11.6871 40.5522 10.7947 39.7762 10.1933C39.0196 9.59191 38.1271 9.29121 37.0989 9.29121C35.9349 9.29121 34.9649 9.61131 34.1889 10.2515C33.4129 10.8917 32.9182 11.7647 32.7048 12.8705Z" fill="white"/>
<path d="M18.2771 0.534584L21.4255 0.534584L21.4255 21.7084L18.2771 21.7084L18.2771 0.534584Z" fill="white"/>
<path d="M26.8965 0.384193L27.9658 11.5141L27.9814 11.6723L27.9639 11.8315L26.8945 21.8754L23.7637 21.5414L24.8164 11.6586L23.7617 0.684975L26.8965 0.384193Z" fill="white"/>
<path d="M12.3385 6.81767H15.4814V21.3678H12.3385V19.2726C11.1551 20.9216 9.4576 21.7461 7.24597 21.7461C5.24775 21.7461 3.54054 21.0089 2.12432 19.5345C0.708107 18.0407 0 16.2268 0 14.0927C0 11.9393 0.708107 10.1254 2.12432 8.65098C3.54054 7.17657 5.24775 6.43936 7.24597 6.43936C9.4576 6.43936 11.1551 7.25417 12.3385 8.88379V6.81767ZM4.45235 17.4393C5.32535 18.3123 6.42147 18.7488 7.74068 18.7488C9.05989 18.7488 10.156 18.3123 11.029 17.4393C11.902 16.5469 12.3385 15.4314 12.3385 14.0927C12.3385 12.7541 11.902 11.6483 11.029 10.7753C10.156 9.8829 9.05989 9.43669 7.74068 9.43669C6.42147 9.43669 5.32535 9.8829 4.45235 10.7753C3.57934 11.6483 3.14283 12.7541 3.14283 14.0927C3.14283 15.4314 3.57934 16.5469 4.45235 17.4393Z" fill="white"/>
</svg>
